<svg aria-hidden="true" style="position: absolute; width: 0; height: 0; overflow: hidden;" version="1.1" xmlns="http://www.w3.org/2000/svg" xmlns:xlink="http://www.w3.org/1999/xlink">
<defs>
<symbol id="weight" viewBox="0 0 32 32">
<path fill="#f8d24e" style="fill: var(--color1, #f8d24e)" d="M16 0c8.837 0 16 7.163 16 16s-7.163 16-16 16c-8.837 0-16-7.163-16-16s7.163-16 16-16z"></path>
<path fill="#000" style="fill: var(--color2, #000)" d="M14.688 4.874c-2.861 0.424-5.218 2.013-6.085 4.093-0.276 0.657-0.351 1.061-0.351 1.853 0.005 0.585 0.026 0.802 0.117 1.118 0.186 0.621 0.319 0.936 0.595 1.382l0.256 0.413-0.288 0.352c-2.271 2.826-2.521 6.8-0.627 9.931 0.707 1.175 1.862 2.329 2.989 3.002l0.335 0.196 9.175-0.077 0.218-0.119c0.761-0.429 1.835-1.387 2.436-2.163 0.87-1.13 1.486-2.5 1.737-3.993l0.007-0.053c0.085-0.533 0.085-2.112-0.005-2.614-0.271-1.547-0.851-2.872-1.766-4.047-0.175-0.223-0.314-0.409-0.314-0.424 0-0.010 0.096-0.171 0.207-0.352 0.255-0.406 0.467-0.875 0.612-1.373l0.010-0.040c0.143-0.518 0.143-1.811 0-2.329-0.511-1.837-2.042-3.369-4.207-4.212-0.607-0.238-1.644-0.492-2.314-0.574-0.622-0.072-2.159-0.058-2.739 0.031zM17.926 5.717c2.84 0.554 4.92 2.292 5.303 4.435 0.085 0.481 0.032 1.299-0.111 1.754-0.144 0.445-0.41 0.968-0.723 1.412-0.128 0.182-0.234 0.388-0.234 0.456s0.111 0.243 0.271 0.419c1.329 1.475 2.031 3.322 2.031 5.32-0.005 2.272-0.877 4.264-2.558 5.827-0.287 0.269-0.697 0.605-0.915 0.75l-0.399 0.269-8.792 0.036-0.34-0.218c-1.234-0.801-2.346-2.126-2.963-3.534-0.776-1.78-0.856-3.845-0.223-5.697 0.335-0.963 0.782-1.749 1.462-2.577 0.277-0.332 0.404-0.528 0.404-0.621 0-0.078-0.138-0.332-0.319-0.595-0.638-0.927-0.899-1.956-0.744-2.929 0.16-0.983 0.606-1.791 1.431-2.592 1.074-1.041 2.574-1.73 4.334-1.988 0.728-0.109 2.34-0.067 3.085 0.072z"></path>
<path fill="#000" style="fill: var(--color2, #000)" d="M14.927 6.628c-2.18 0.357-3.888 1.568-4.447 3.157-0.128 0.357-0.148 0.497-0.148 1.009s0.021 0.652 0.148 1.009c0.080 0.228 0.229 0.544 0.33 0.704 0.277 0.445 0.399 0.461 0.947 0.129 0.788-0.485 1.705-0.857 2.683-1.062l0.056-0.010c0.659-0.134 1.925-0.186 2.643-0.103 1.122 0.129 2.34 0.532 3.313 1.107 0.277 0.16 0.559 0.294 0.628 0.294 0.404 0 0.92-1.164 0.92-2.069 0-2.013-1.926-3.736-4.654-4.166-0.58-0.093-1.862-0.093-2.42 0zM17.559 7.456c0.915 0.196 1.756 0.57 2.388 1.061 0.851 0.657 1.308 1.573 1.234 2.458-0.027 0.352-0.16 0.828-0.239 0.88-0.021 0.010-0.319-0.114-0.659-0.279-0.667-0.327-1.443-0.6-2.254-0.779l-0.070-0.013c-0.495-0.103-0.702-0.119-1.809-0.114-1.090 0-1.318 0.016-1.792 0.114-0.819 0.176-1.457 0.394-2.244 0.766-0.793 0.378-0.75 0.383-0.894-0.083-0.186-0.605-0.069-1.407 0.292-2.013 0.192-0.321 0.718-0.854 1.101-1.117 0.73-0.502 1.368-0.73 2.739-0.979 0.282-0.051 1.846 0.021 2.208 0.099zM16.693 14.131c-0.149 0.187-0.149 0.363 0.005 0.513 0.101 0.099 0.202 0.124 0.57 0.15 0.745 0.054 1.428 0.274 2.027 0.623l-0.022-0.012c0.436 0.259 1.101 0.885 1.399 1.335 0.442 0.646 0.744 1.573 0.744 2.257 0 0.238 0.022 0.31 0.133 0.413 0.17 0.171 0.394 0.171 0.559 0 0.117-0.119 0.122-0.15 0.090-0.657-0.149-2.505-2.292-4.595-4.856-4.736l-0.532-0.031-0.116 0.145z"></path>
</symbol>
<symbol id="ice-crema" viewBox="0 0 31 32">
<path fill="#f8d24e" style="fill: var(--color1, #f8d24e)" d="M15.686 0c8.663 0 15.686 7.023 15.686 15.686v0.008c0 8.663-7.023 15.686-15.686 15.686s-15.686-7.023-15.686-15.686v-0.008c0-8.663 7.023-15.686 15.686-15.686z"></path>
<path fill="#000" style="fill: var(--color2, #000)" d="M15.763 4.467c0.056 0.152 0.17 0.884 0.17 1.111 0 0.002 0 0.005 0 0.008 0 0.577-0.225 1.102-0.591 1.492l0.001-0.001c-0.317 0.34-0.634 0.529-1.394 0.836-0.846 0.345-1.196 0.553-1.592 0.945-0.402 0.402-0.638 0.841-0.723 1.357-0.095 0.562 0 0.959 0.288 1.186l0.146 0.113-0.232 0.147c-0.467 0.307-1.318 1.030-1.464 1.252-0.284 0.425-0.255 0.822 0.066 0.983l0.151 0.075-0.17 0.161c-0.255 0.241-0.307 0.407-0.27 0.841 0.024 0.289 0.014 0.445-0.051 0.681-0.080 0.307-0.080 0.312 0.023 0.53 0.104 0.213 0.397 0.482 0.662 0.595 0.127 0.056 0.132 0.075 0.161 0.51 0.014 0.251 0.038 1.049 0.056 1.777 0.014 0.728 0.048 1.394 0.075 1.474 0.024 0.085 0.114 0.198 0.194 0.255 0.274 0.189 0.463 0.393 0.585 0.629 0.137 0.27 0.289 0.931 0.747 3.218l0.322 1.606 0.198 0.189c0.378 0.373 1.101 0.543 2.292 0.543 1.195 0 1.909-0.166 2.287-0.539l0.203-0.193 0.292-1.489c0.647-3.256 0.704-3.435 1.21-3.837 0.156-0.128 0.307-0.284 0.335-0.355 0.033-0.080 0.067-0.7 0.090-1.635 0.019-0.831 0.048-1.654 0.067-1.829l0.028-0.316 0.307-0.232c0.387-0.297 0.538-0.567 0.538-0.983-0.004-0.491-0.326-1.030-0.912-1.512l-0.279-0.226 0.137-0.194c0.572-0.789 0.213-1.88-0.851-2.608l-0.321-0.222 0.118-0.123c0.525-0.562 0.61-2.24 0.17-3.407-0.264-0.695-0.87-1.451-1.611-2.008-0.363-0.274-1.365-0.879-1.454-0.879-0.019 0-0.019 0.033-0.004 0.075zM17.123 6.118c0.251 0.246 0.553 0.581 0.671 0.751 0.704 0.983 0.883 2.217 0.458 3.124-0.17 0.368-0.681 0.916-1.153 1.242-0.723 0.501-2.349 1.343-3.482 1.805-1.824 0.742-2.883 0.884-3.005 0.397-0.048-0.184 0.090-0.331 0.671-0.718 0.524-0.359 2.877-2.108 2.92-2.178 0.014-0.019-0.227 0.090-0.53 0.241-1.025 0.52-1.512 0.42-1.488-0.302 0.014-0.525 0.392-1.119 0.916-1.46 0.133-0.085 0.544-0.274 0.922-0.425 1.242-0.501 1.621-0.756 2.041-1.384 0.251-0.373 0.525-1.064 0.543-1.357 0.005-0.104 0.024-0.184 0.038-0.184s0.227 0.203 0.477 0.449zM18.413 11.486c0.345 0.193 0.704 0.525 0.86 0.784 0.275 0.467 0.133 0.936-0.458 1.531-0.642 0.653-1.739 1.276-2.944 1.673-1.111 0.364-2.174 0.534-3.696 0.586l-0.945 0.033 0.615 0.038c0.794 0.052 2.329 0.005 2.925-0.090 1.583-0.251 2.93-0.752 3.894-1.441 0.218-0.156 0.444-0.284 0.506-0.284 0.156 0 0.836 0.653 0.973 0.926 0.076 0.156 0.095 0.27 0.080 0.42-0.071 0.629-0.836 0.964-2.684 1.186-2.259 0.27-5.212 0.005-6.474-0.576-0.596-0.274-0.695-0.43-0.543-0.846 0.047-0.132 0.056-0.289 0.038-0.511-0.024-0.293-0.019-0.331 0.085-0.439 0.237-0.255 0.634-0.402 2.089-0.771 0.51-0.132 1.205-0.34 1.535-0.463 0.803-0.293 2.311-1.054 3.010-1.522 0.657-0.435 0.752-0.454 1.134-0.236zM12.137 17.27c0.993 0.289 1.872 0.373 3.507 0.34 1.229-0.023 1.985-0.099 3.076-0.293 0.223-0.038 0.416-0.071 0.44-0.071 0.052 0 0.038 1.815-0.019 2.292-0.061 0.506-0.199 0.898-0.345 0.993-0.151 0.099-0.907 0.203-1.919 0.26-2.074 0.113-4.206 0-4.867-0.265-0.359-0.146-0.397-0.336-0.402-2.089 0-1.167 0.009-1.328 0.071-1.304 0.038 0.014 0.245 0.075 0.458 0.137zM13.257 21.287c0.341 0.043 0.709 0.085 0.822 0.099l0.204 0.024-0.18 0.198c-0.232 0.25-0.586 0.751-0.713 1.006-0.146 0.293-0.194 0.312-0.411 0.194l-0.184-0.104-0.104-0.642c-0.055-0.357-0.101-0.609-0.152-0.859l0.020 0.117c-0.043-0.122-0.085-0.122 0.699-0.033zM18.295 21.235c0 0.009-0.024 0.132-0.048 0.27-0.028 0.141-0.146 0.912-0.264 1.715-0.241 1.678-0.402 2.466-0.548 2.731-0.203 0.355-0.69 0.562-1.479 0.629-0.307 0.024-1.234-0.038-1.286-0.085-0.038-0.042 0.775-1.049 0.903-1.115 0.118-0.067 0.151-0.056 0.552 0.151 0.468 0.247 0.705 0.284 0.705 0.128s-0.123-0.307-0.425-0.514c-0.279-0.199-0.378-0.312-0.378-0.445 0-0.038 0.137-0.25 0.302-0.472s0.406-0.577 0.529-0.789l0.232-0.383 0.212 0.029c0.43 0.061 0.543 0.056 0.53-0.038-0.009-0.048-0.090-0.184-0.18-0.298-0.090-0.118-0.161-0.237-0.161-0.26 0-0.090 0.439-0.917 0.582-1.092 0.123-0.151 0.222-0.227 0.222-0.161zM15.342 21.613c0.236 0.156 1.124 0.926 1.181 1.021 0.024 0.043-0.888 1.47-1.068 1.673-0.019 0.024-0.118-0.023-0.217-0.099-0.22-0.166-0.488-0.352-0.762-0.531l-0.060-0.037-0.638-0.42 0.383-0.648c0.68-1.139 0.666-1.12 0.813-1.12 0.075 0 0.241 0.071 0.369 0.161zM17.133 21.783c-0.166 0.203-0.302 0.331-0.359 0.331-0.123 0-0.322-0.109-0.657-0.355l-0.279-0.203 0.558-0.033c0.246-0.009 0.47-0.024 0.692-0.046l-0.046 0.004c0.378-0.061 0.378-0.056 0.090 0.303zM13.56 24.056c0.435 0.17 1.172 0.572 1.385 0.752 0.151 0.122 0.151 0.132 0.090 0.283-0.1 0.199-0.197 0.364-0.304 0.523l0.011-0.017c-0.091 0.135-0.196 0.306-0.295 0.482l-0.022 0.043c-0.151 0.293-0.198 0.317-0.51 0.232-0.336-0.1-0.514-0.27-0.609-0.577-0.128-0.43-0.331-1.644-0.307-1.833 0.009-0.071 0.208-0.028 0.562 0.114z"></path>
</symbol>
<symbol id="cow" viewBox="0 0 32 32">
<path fill="#f8d24e" style="fill: var(--color1, #f8d24e)" d="M16 0c8.837 0 16 7.163 16 16s-7.163 16-16 16c-8.837 0-16-7.163-16-16s7.163-16 16-16z"></path>
<path fill="#131313" style="fill: var(--color3, #131313)" d="M8.922 4.618c-0.188 0.163-0.725 1.283-0.918 1.894-0.229 0.758-0.307 1.326-0.276 2.111 0.042 1.12 0.323 1.97 0.943 2.858 0.162 0.232 0.292 0.433 0.292 0.449 0 0.011-0.099 0.021-0.224 0.021-0.538 0-1.544 0.179-2.315 0.412-1.225 0.368-1.944 1.012-1.944 1.732 0 0.255 0.229 0.687 0.474 0.909 0.474 0.428 1.512 0.834 2.627 1.028 0.386 0.070 1.533 0.189 1.788 0.195 0.047 0 0.063 0.249 0.063 1.066 0 0.703 0.026 1.25 0.078 1.585 0.188 1.201 0.771 2.474 1.542 3.372l0.266 0.308-0.177 0.287c-0.26 0.406-0.36 0.714-0.39 1.174-0.079 1.104 0.609 2.083 1.939 2.771 2.532 1.315 6.468 0.8 7.944-1.039 0.719-0.899 0.803-1.926 0.234-2.858l-0.177-0.287 0.318-0.384c0.595-0.714 0.98-1.428 1.272-2.332 0.244-0.769 0.339-1.51 0.339-2.685 0-0.536 0.015-0.979 0.042-0.979 0.24-0.006 1.392-0.13 1.757-0.195 1.121-0.195 2.138-0.595 2.627-1.028 0.245-0.222 0.474-0.655 0.474-0.909 0-0.801-0.813-1.45-2.325-1.84-0.495-0.13-1.428-0.287-1.882-0.314l-0.214-0.017 0.235-0.324c0.292-0.396 0.657-1.164 0.797-1.667 0.396-1.455 0.151-3.149-0.699-4.768-0.354-0.671-0.599-0.828-0.886-0.563-0.109 0.104-0.156 0.244-0.26 0.753-0.323 1.619-0.923 2.901-1.798 3.848l-0.386 0.422h-8.246l-0.344-0.374c-0.854-0.942-1.475-2.273-1.798-3.897-0.104-0.509-0.151-0.649-0.26-0.752-0.172-0.157-0.339-0.152-0.531 0.016zM9.588 7.828c0.276 0.606 0.621 1.174 1.027 1.699l0.323 0.417-0.339 0.255c-0.318 0.243-0.615 0.589-0.845 0.985l-0.099 0.179-0.25-0.341c-0.855-1.18-1.069-2.625-0.615-4.124 0.219-0.725 0.214-0.719 0.412-0.092 0.094 0.303 0.271 0.763 0.386 1.023zM23.156 6.686c0.189 0.524 0.298 1.13 0.298 1.76 0 0.022-0 0.045-0 0.067l0-0.003c0 0.984-0.26 1.818-0.808 2.565l-0.245 0.335-0.182-0.308c-0.236-0.4-0.542-0.734-0.903-0.995l-0.009-0.007c-0.141-0.092-0.25-0.184-0.25-0.195 0-0.016 0.099-0.141 0.224-0.276 0.579-0.644 1.199-1.802 1.507-2.798 0.093-0.308 0.188-0.563 0.203-0.563s0.094 0.189 0.166 0.417zM20.493 10.642c0.579 0.243 1.131 0.941 1.22 1.532 0.047 0.325 0.156 0.531 0.297 0.563 0.063 0.010 0.495 0.049 0.959 0.081 1.647 0.109 2.945 0.461 3.498 0.942 0.255 0.227 0.229 0.416-0.078 0.65-0.615 0.465-1.944 0.817-3.3 0.877-0.897 0.038-1.084 0.064-1.204 0.189-0.089 0.092-0.099 0.189-0.099 1.169 0 1.326-0.068 2.089-0.235 2.706-0.234 0.838-0.698 1.732-1.24 2.365l-0.224 0.26-0.464-0.276c-0.495-0.307-1.069-0.547-1.681-0.69l-0.039-0.008c-1.976-0.472-4.16-0.184-5.629 0.741l-0.339 0.216-0.214-0.255c-0.292-0.34-0.751-1.071-0.933-1.483-0.401-0.931-0.521-1.688-0.521-3.355 0-1.619 0.083-1.5-1.116-1.564-1.533-0.081-2.701-0.357-3.436-0.823-0.542-0.346-0.453-0.655 0.303-1.018 0.724-0.351 1.72-0.563 3.101-0.649 1.074-0.070 1.1-0.086 1.199-0.606 0.146-0.785 0.724-1.434 1.455-1.64 0.182-0.054 1.204-0.065 4.332-0.060l4.092 0.010 0.297 0.125zM17.564 21.844c1.277 0.314 2.231 0.899 2.643 1.624 0.099 0.168 0.141 0.341 0.161 0.606 0.021 0.33 0.006 0.412-0.12 0.682-0.579 1.229-2.705 2.040-4.868 1.856-2.601-0.216-4.311-1.667-3.638-3.090 0.365-0.769 1.6-1.505 2.903-1.722 0.214-0.032 0.428-0.070 0.469-0.081s0.511-0.011 1.043 0c0.724 0.016 1.073 0.049 1.407 0.124z"></path>
<path fill="#131313" style="fill: var(--color3, #131313)" d="M12.392 13.351c-0.323 0.109-0.542 0.25-0.834 0.541-0.255 0.243-0.276 0.53-0.062 0.703 0.198 0.162 0.385 0.141 0.625-0.070 0.302-0.265 0.537-0.374 0.829-0.374 0.292-0.005 0.516 0.098 0.829 0.374 0.24 0.211 0.428 0.232 0.625 0.070 0.104-0.087 0.136-0.157 0.136-0.32 0-0.167-0.036-0.243-0.219-0.427-0.516-0.519-1.283-0.719-1.929-0.498zM18.47 13.345c-0.333 0.125-0.761 0.406-0.932 0.617-0.167 0.206-0.173 0.438 0 0.612 0.172 0.184 0.38 0.173 0.63-0.033 0.615-0.509 1.074-0.525 1.642-0.054 0.146 0.125 0.312 0.222 0.365 0.222 0.255 0 0.464-0.227 0.464-0.498 0-0.173-0.433-0.573-0.824-0.763-0.433-0.211-0.948-0.249-1.345-0.102zM13.149 23.361c-0.151 0.146-0.204 0.356-0.125 0.525 0.058 0.134 0.146 0.189 0.506 0.287 0.162 0.043 0.23 0.097 0.287 0.232 0.073 0.179 0.078 0.179 0.48 0.195l0.401 0.017v-0.152c-0.005-0.216-0.125-0.53-0.282-0.746-0.182-0.25-0.5-0.412-0.86-0.444-0.245-0.021-0.307-0.011-0.406 0.087zM18.127 23.323c-0.26 0.070-0.636 0.422-0.74 0.698-0.052 0.145-0.087 0.313-0.098 0.487l-0 0.006c-0.011 0.232 0.010 0.287 0.135 0.4 0.307 0.271 0.714 0.060 0.714-0.373 0-0.211 0.156-0.357 0.433-0.411 0.292-0.054 0.397-0.173 0.401-0.449 0-0.362-0.323-0.503-0.845-0.357z"></path>
</symbol>
</defs>
</svg>
